<svg id="kity_svg_6" xmlns="http://www.w3.org/2000/svg" xmlns:xlink="http://www.w3.org/1999/xlink" version="1.1" width="1393" height="691" style="background: rgb(251, 251, 251); visibility: visible;" viewBox="0 0 1393 691"><defs id="kity_defs_7"><linearGradient id="kity_linearGradient_17" x1="0" y1="0" x2="0" y2="1"><stop id="kity_stop_18" offset="0" stop-color="rgb(255, 255, 255)"></stop><stop id="kity_stop_19" offset="1" stop-color="rgb(204, 204, 204)"></stop></linearGradient><marker id="kity_marker_2" orient="auto" refX="6" refY="0" viewBox="-7 -7 14 14" markerWidth="7" markerHeight="7" markerUnits="userSpaceOnUse"><path id="kity_path_3" fill="rgb(115, 161, 191)" stroke="none" d="M6,0A6,6,0,1,1,-6,0A6,6,0,1,1,6,0"></path></marker></defs><g id="kity_g_8"><g id="minder1" text-rendering="optimize-speed"><g id="minder_connect_group1"><path id="kity_path_39" fill="none" stroke="rgb(115, 161, 191)" stroke-width="1" d="M134.5,298.5h17L201.5,248.5"></path><path id="kity_path_47" fill="none" stroke="rgb(115, 161, 191)" stroke-width="1" d="M134.5,298.5h51L247.5,360.5"></path><path id="kity_path_79" fill="none" stroke="rgb(115, 161, 191)" stroke-width="1" d="M134.5,298.5h200L383.5,249.5"></path><path id="kity_path_120" fill="none" stroke="rgb(115, 161, 191)" stroke-width="1" d="M134.5,298.5h226L423.5,361.5"></path><path id="kity_path_152" fill="none" stroke="rgb(115, 161, 191)" stroke-width="1" d="M134.5,298.5h671L848.5,255.5"></path><path id="kity_path_177" fill="none" stroke="rgb(115, 161, 191)" stroke-width="1" d="M134.5,298.5h366L607.5,405.5"></path><path id="kity_path_209" fill="none" stroke="rgb(115, 161, 191)" stroke-width="1" d="M134.5,298.5h416L626.5,222.5"></path><path id="kity_path_271" fill="none" stroke="rgb(115, 161, 191)" stroke-width="1" d="M238.172,222.5L239.5,181.5"></path><path id="kity_path_286" fill="none" stroke="rgb(115, 161, 191)" stroke-width="1" d="M289.902,386.5L180.5,455.5"></path><path id="kity_path_428" fill="none" stroke="rgb(115, 161, 191)" stroke-width="1" d="M420.554,223.5L453.5,149.5"></path><path id="kity_path_429" fill="none" stroke="rgb(115, 161, 191)" stroke-width="1" d="M420.554,223.5L459.5,185.5"></path><path id="kity_path_430" fill="none" stroke="rgb(115, 161, 191)" stroke-width="1" d="M471.632,387.5L504.5,422.5"></path><path id="kity_path_431" fill="none" stroke="rgb(115, 161, 191)" stroke-width="1" d="M471.632,387.5L493.5,465.5"></path><path id="kity_path_446" fill="none" stroke="rgb(115, 161, 191)" stroke-width="1" d="M688.384,196.5L716.5,115.5"></path><path id="kity_path_447" fill="none" stroke="rgb(115, 161, 191)" stroke-width="1" d="M688.384,196.5L720.5,164.5"></path><path id="kity_path_448" fill="none" stroke="rgb(115, 161, 191)" stroke-width="1" d="M802.5,84.5V31.5L830.5,31.5"></path><path id="kity_path_449" fill="none" stroke="rgb(115, 161, 191)" stroke-width="1" d="M736.5,126.5V73.5L782.5,73.5"></path><path id="kity_path_453" fill="none" stroke="rgb(115, 161, 191)" stroke-width="1" d="M134.5,298.5h715L902.5,351.5"></path><path id="kity_path_462" fill="none" stroke="rgb(115, 161, 191)" stroke-width="1" d="M649.52,431.5L688.5,464.5"></path><path id="kity_path_463" fill="none" stroke="rgb(115, 161, 191)" stroke-width="1" d="M649.52,431.5L687.5,502.5"></path><path id="kity_path_464" fill="none" stroke="rgb(115, 161, 191)" stroke-width="1" d="M649.52,431.5L687.5,550.5"></path><path id="kity_path_465" fill="none" stroke="rgb(115, 161, 191)" stroke-width="1" d="M885.936,229.5L929.5,153.5"></path><path id="kity_path_466" fill="none" stroke="rgb(115, 161, 191)" stroke-width="1" d="M885.936,229.5L951.5,193.5"></path><path id="kity_path_468" fill="none" stroke="rgb(115, 161, 191)" stroke-width="1" d="M939.936,377.5L999.5,512.5"></path><path id="kity_path_476" fill="none" stroke="rgb(115, 161, 191)" stroke-width="1" d="M939.936,377.5L963.5,660.5"></path><path id="kity_path_533" fill="none" stroke="rgb(115, 161, 191)" stroke-width="1" d="M983.5,649.5V574.5L1015.5,574.5"></path><path id="kity_path_534" fill="none" stroke="rgb(115, 161, 191)" stroke-width="1" d="M983.5,649.5V621.5L1020.5,621.5"></path><path id="kity_path_535" fill="none" stroke="rgb(115, 161, 191)" stroke-width="1" d="M1019.5,501.5V408.5L1039.5,408.5"></path><path id="kity_path_536" fill="none" stroke="rgb(115, 161, 191)" stroke-width="1" d="M1019.5,501.5V456.5L1039.5,456.5"></path><path id="kity_path_538" fill="none" stroke="rgb(115, 161, 191)" stroke-width="1" d="M134.5,298.5h868L1033.5,267.5"></path><path id="kity_path_554" fill="none" stroke="rgb(115, 161, 191)" stroke-width="1" d="M134.5,298.5h1041L1177.5,300.5"></path><path id="kity_path_593" fill="none" stroke="rgb(115, 161, 191)" stroke-width="1" d="M1203.858,326.5L1261.5,374.5"></path><path id="kity_path_594" fill="none" stroke="rgb(115, 161, 191)" stroke-width="1" d="M1203.858,326.5L1275.5,417.5"></path><path id="kity_path_595" fill="none" stroke="rgb(115, 161, 191)" stroke-width="1" d="M1203.858,326.5L1291.5,463.5"></path><path id="kity_path_596" fill="none" stroke="rgb(115, 161, 191)" stroke-width="1" d="M1203.858,326.5L1304.5,508.5"></path></g><g id="minder_node1"><path id="node_outline1" fill="rgb(115, 161, 191)" stroke="rgb(115, 161, 191)" d="M25.5,278.5h104a5,5,0,0,1,5,5v30a5,5,0,0,1,-5,5h-104a5,5,0,0,1,-5,-5v-30a5,5,0,0,1,5,-5z" stroke-width="3"></path><g id="node_text1" fill="white"><text id="kity_text_22" text-rendering="inherit" font-size="16" dy=".8em" y="288.09999990463257" x="44.5">项目流程</text></g></g><g id="kity_g_14" display="none"><path id="kity_path_15" fill="rgba(0, 92, 153, 0.5)" stroke="none" d="M1020.5,592.5h45v15h-45z"></path><path id="kity_path_16" fill="none" stroke="rgb(0, 76, 128)" d="M1020.5,607.5L1065.5,607.5" stroke-width="1"></path></g><g id="minder_node3" opacity="1"><g id="node_expander2" style="cursor: pointer;"><path id="kity_path_44" fill="white" stroke="gray" d="M202.5502529144287,253.4497470855713A6,6,0,1,1,190.5502529144287,253.4497470855713A6,6,0,1,1,202.5502529144287,253.4497470855713"></path><path id="kity_path_45" fill="none" stroke="gray" d="M192.0502529144287,253.4497470855713L201.0502529144287,253.4497470855713"></path></g><path id="node_outline3" fill="rgb(238, 243, 246)" stroke="rgb(115, 161, 191)" d="M204.5,222.5h90a3,3,0,0,1,3,3v20a3,3,0,0,1,-3,3h-90a3,3,0,0,1,-3,-3v-20a3,3,0,0,1,3,-3z" stroke-width="1"></path><g id="node_text3" fill="black"><text id="kity_text_41" text-rendering="inherit" font-size="14" dy=".8em" y="226.40000009536743" x="221.5">内容脑图</text></g></g><g id="minder_node4" opacity="1"><g id="node_expander3" style="cursor: pointer;"><path id="kity_path_52" fill="white" stroke="gray" d="M248.5502529144287,355.5502529144287A6,6,0,1,1,236.5502529144287,355.5502529144287A6,6,0,1,1,248.5502529144287,355.5502529144287"></path><path id="kity_path_53" fill="none" stroke="gray" d="M238.0502529144287,355.5502529144287L247.0502529144287,355.5502529144287"></path></g><path id="node_outline4" fill="rgb(238, 243, 246)" stroke="rgb(115, 161, 191)" d="M250.5,360.5h105a3,3,0,0,1,3,3v20a3,3,0,0,1,-3,3h-105a3,3,0,0,1,-3,-3v-20a3,3,0,0,1,3,-3z" stroke-width="1"></path><g id="node_text4" fill="black"><text id="kity_text_49" text-rendering="inherit" font-size="14" dy=".8em" y="364.40000009536743" x="267.5">梳理功能点</text></g></g><g id="minder_node8" opacity="1"><g id="node_expander8" style="cursor: pointer;"><path id="kity_path_92" fill="white" stroke="gray" d="M384.5502529144287,254.4497470855713A6,6,0,1,1,372.5502529144287,254.4497470855713A6,6,0,1,1,384.5502529144287,254.4497470855713"></path><path id="kity_path_93" fill="none" stroke="gray" d="M374.0502529144287,254.4497470855713L383.0502529144287,254.4497470855713"></path></g><path id="node_outline9" fill="rgb(238, 243, 246)" stroke="rgb(115, 161, 191)" d="M386.5,223.5h91a3,3,0,0,1,3,3v20a3,3,0,0,1,-3,3h-91a3,3,0,0,1,-3,-3v-20a3,3,0,0,1,3,-3z" stroke-width="1"></path><g id="node_text9" fill="black"><text id="kity_text_85" text-rendering="inherit" font-size="14" dy=".8em" y="227.40000009536743" x="403.5">系统架构</text></g></g><g id="minder_node13" opacity="1"><g id="node_expander12" style="cursor: pointer;"><path id="kity_path_125" fill="white" stroke="gray" d="M424.5502529144287,356.5502529144287A6,6,0,1,1,412.5502529144287,356.5502529144287A6,6,0,1,1,424.5502529144287,356.5502529144287"></path><path id="kity_path_126" fill="none" stroke="gray" d="M414.0502529144287,356.5502529144287L423.0502529144287,356.5502529144287"></path></g><path id="node_outline13" fill="rgb(238, 243, 246)" stroke="rgb(115, 161, 191)" d="M426.5,361.5h120a3,3,0,0,1,3,3v20a3,3,0,0,1,-3,3h-120a3,3,0,0,1,-3,-3v-20a3,3,0,0,1,3,-3z" stroke-width="1"></path><g id="node_text13" fill="black"><text id="kity_text_122" text-rendering="inherit" font-size="14" dy=".8em" y="365.40000009536743" x="443.5">各个模块设计</text></g></g><g id="minder_node17" opacity="1"><g id="node_expander16" style="cursor: pointer;"><path id="kity_path_157" fill="white" stroke="gray" d="M849.5502529144287,260.4497470855713A6,6,0,1,1,837.5502529144287,260.4497470855713A6,6,0,1,1,849.5502529144287,260.4497470855713"></path><path id="kity_path_158" fill="none" stroke="gray" d="M839.0502529144287,260.4497470855713L848.0502529144287,260.4497470855713"></path></g><path id="node_outline17" fill="rgb(238, 243, 246)" stroke="rgb(115, 161, 191)" d="M851.5,229.5h92a3,3,0,0,1,3,3v20a3,3,0,0,1,-3,3h-92a3,3,0,0,1,-3,-3v-20a3,3,0,0,1,3,-3z" stroke-width="1"></path><g id="node_text17" fill="black"><text id="kity_text_154" text-rendering="inherit" font-size="14" dy=".8em" y="233.40000009536743" x="868.5">界面设计</text></g></g><g id="minder_node20" opacity="1"><g id="node_expander19" style="cursor: pointer;"><path id="kity_path_182" fill="white" stroke="gray" d="M608.5502529144287,400.5502529144287A6,6,0,1,1,596.5502529144287,400.5502529144287A6,6,0,1,1,608.5502529144287,400.5502529144287"></path><path id="kity_path_183" fill="none" stroke="gray" d="M598.0502529144287,400.5502529144287L607.0502529144287,400.5502529144287"></path></g><path id="node_outline20" fill="rgb(238, 243, 246)" stroke="rgb(115, 161, 191)" d="M610.5,405.5h104a3,3,0,0,1,3,3v20a3,3,0,0,1,-3,3h-104a3,3,0,0,1,-3,-3v-20a3,3,0,0,1,3,-3z" stroke-width="1"></path><g id="node_text20" fill="black"><text id="kity_text_179" text-rendering="inherit" font-size="14" dy=".8em" y="409.40000009536743" x="627.5">业务流程图</text></g></g><g id="minder_node24" opacity="1"><g id="node_expander23" style="cursor: pointer;"><path id="kity_path_214" fill="white" stroke="gray" d="M627.5502529144287,227.4497470855713A6,6,0,1,1,615.5502529144287,227.4497470855713A6,6,0,1,1,627.5502529144287,227.4497470855713"></path><path id="kity_path_215" fill="none" stroke="gray" d="M617.0502529144287,227.4497470855713L626.0502529144287,227.4497470855713"></path></g><path id="node_outline24" fill="rgb(238, 243, 246)" stroke="rgb(115, 161, 191)" d="M629.5,196.5h156a3,3,0,0,1,3,3v20a3,3,0,0,1,-3,3h-156a3,3,0,0,1,-3,-3v-20a3,3,0,0,1,3,-3z" stroke-width="1"></path><g id="node_text24" fill="black"><text id="kity_text_211" text-rendering="inherit" font-size="14" dy=".8em" y="200.40000009536743" x="646.5">总框架图(前期整合)</text></g></g><g id="minder_node27" opacity="1"><g id="node_expander26" style="cursor: pointer;" display="none"><path id="kity_path_276" fill="white" stroke="gray" d="M239.5,181.5A6,6,0,1,1,227.5,181.5A6,6,0,1,1,239.5,181.5"></path><path id="kity_path_277" fill="none" stroke="gray"></path></g><path id="node_outline27" fill="none" stroke="none" d="M244.5,170.5h156a5,5,0,0,1,5,5v12a5,5,0,0,1,-5,5h-156a5,5,0,0,1,-5,-5v-12a5,5,0,0,1,5,-5z" stroke-width="3"></path><g id="node_text27" fill="black"><text id="kity_text_273" text-rendering="inherit" font-size="12" dy=".8em" y="173.70000004768372" x="249.5">这个项目大致要做什么事情</text></g></g><g id="minder_node28" opacity="1"><g id="node_expander27" style="cursor: pointer;" display="none"><path id="kity_path_284" fill="white" stroke="gray" d="M180.5,455.5A6,6,0,1,1,168.5,455.5A6,6,0,1,1,180.5,455.5"></path><path id="kity_path_285" fill="none" stroke="gray"></path></g><path id="node_outline28" fill="none" stroke="none" d="M185.5,444.5h204a5,5,0,0,1,5,5v12a5,5,0,0,1,-5,5h-204a5,5,0,0,1,-5,-5v-12a5,5,0,0,1,5,-5z" stroke-width="3"></path><g id="node_text28" fill="black"><text id="kity_text_281" text-rendering="inherit" font-size="12" dy=".8em" y="447.7000000476837" x="190.5">在脑图上，进行具体功能的扩充修改</text></g></g><g id="minder_node9" opacity="1"><g id="node_expander7" style="cursor: pointer;" display="none"><path id="kity_path_89" fill="white" stroke="gray" d="M453.5,149.5A6,6,0,1,1,441.5,149.5A6,6,0,1,1,453.5,149.5"></path><path id="kity_path_90" fill="none" stroke="gray"></path></g><path id="node_outline8" fill="none" stroke="none" d="M458.5,138.5h59a5,5,0,0,1,5,5v12a5,5,0,0,1,-5,5h-59a5,5,0,0,1,-5,-5v-12a5,5,0,0,1,5,-5z" stroke-width="3"></path><g id="node_text8" fill="black"><text id="kity_text_83" text-rendering="inherit" font-size="12" dy=".8em" y="141.70000004768372" x="463.5">整体架构</text></g></g><g id="minder_node10" opacity="1"><g id="node_expander9" style="cursor: pointer;" display="none"><path id="kity_path_100" fill="white" stroke="gray" d="M459.5,185.5A6,6,0,1,1,447.5,185.5A6,6,0,1,1,459.5,185.5"></path><path id="kity_path_101" fill="none" stroke="gray" d="M449,185.5L458,185.5"></path></g><path id="node_outline10" fill="none" stroke="none" d="M464.5,174.5h70a5,5,0,0,1,5,5v12a5,5,0,0,1,-5,5h-70a5,5,0,0,1,-5,-5v-12a5,5,0,0,1,5,-5z" stroke-width="3"></path><g id="node_text10" fill="black"><text id="kity_text_97" text-rendering="inherit" font-size="12" dy=".8em" y="177.70000004768372" x="469.5">系统的模块</text></g></g><g id="minder_node14" opacity="1"><g id="node_expander13" style="cursor: pointer;" display="none"><path id="kity_path_133" fill="white" stroke="gray" d="M504.5,422.5A6,6,0,1,1,492.5,422.5A6,6,0,1,1,504.5,422.5"></path><path id="kity_path_134" fill="none" stroke="gray"></path></g><path id="node_outline14" fill="none" stroke="none" d="M509.5,411.5h72a5,5,0,0,1,5,5v12a5,5,0,0,1,-5,5h-72a5,5,0,0,1,-5,-5v-12a5,5,0,0,1,5,-5z" stroke-width="3"></path><g id="node_text14" fill="black"><text id="kity_text_130" text-rendering="inherit" font-size="12" dy=".8em" y="414.7000000476837" x="514.5">数据库设计</text></g></g><g id="minder_node15" opacity="1"><g id="node_expander14" style="cursor: pointer;" display="none"><path id="kity_path_141" fill="white" stroke="gray" d="M493.5,465.5A6,6,0,1,1,481.5,465.5A6,6,0,1,1,493.5,465.5"></path><path id="kity_path_142" fill="none" stroke="gray"></path></g><path id="node_outline15" fill="none" stroke="none" d="M498.5,454.5h115a5,5,0,0,1,5,5v12a5,5,0,0,1,-5,5h-115a5,5,0,0,1,-5,-5v-12a5,5,0,0,1,5,-5z" stroke-width="3"></path><g id="node_text15" fill="black"><text id="kity_text_138" text-rendering="inherit" font-size="12" dy=".8em" y="457.7000000476837" x="503.5">输入输出&#xa0; 接口设计</text></g></g><g id="minder_node25" opacity="1"><g id="node_expander24" style="cursor: pointer;"><path id="kity_path_245" fill="white" stroke="gray" d="M716.5,115.5A6,6,0,1,1,704.5,115.5A6,6,0,1,1,716.5,115.5"></path><path id="kity_path_246" fill="none" stroke="gray" d="M706,115.5L715,115.5"></path></g><path id="node_outline25" fill="none" stroke="none" d="M721.5,104.5h191a5,5,0,0,1,5,5v12a5,5,0,0,1,-5,5h-191a5,5,0,0,1,-5,-5v-12a5,5,0,0,1,5,-5z" stroke-width="3"></path><g id="node_text25" fill="black"><text id="kity_text_242" text-rendering="inherit" font-size="12" dy=".8em" y="107.70000004768372" x="726.5">前端：具体的功能需求，数据涉及</text></g></g><g id="minder_node26" opacity="1"><g id="node_expander25" style="cursor: pointer;" display="none"><path id="kity_path_253" fill="white" stroke="gray" d="M720.5,164.5A6,6,0,1,1,708.5,164.5A6,6,0,1,1,720.5,164.5"></path><path id="kity_path_254" fill="none" stroke="gray"></path></g><path id="node_outline26" fill="none" stroke="none" d="M725.5,153.5h132a5,5,0,0,1,5,5v12a5,5,0,0,1,-5,5h-132a5,5,0,0,1,-5,-5v-12a5,5,0,0,1,5,-5z" stroke-width="3"></path><g id="node_text26" fill="black"><text id="kity_text_250" text-rendering="inherit" font-size="12" dy=".8em" y="156.70000004768372" x="730.5">后端：具体的功能需求</text></g></g><g id="minder_node31" opacity="1"><g id="node_expander30" style="cursor: pointer;" display="none"><path id="kity_path_324" fill="white" stroke="gray" d="M830.5,31.5A6,6,0,1,1,818.5,31.5A6,6,0,1,1,830.5,31.5"></path><path id="kity_path_325" fill="none" stroke="gray"></path></g><path id="node_outline31" fill="none" stroke="none" d="M835.5,20.5h51a5,5,0,0,1,5,5v12a5,5,0,0,1,-5,5h-51a5,5,0,0,1,-5,-5v-12a5,5,0,0,1,5,-5z" stroke-width="3"></path><g id="node_text31" fill="black"><text id="kity_text_321" text-rendering="inherit" font-size="12" dy=".8em" y="23.700000047683716" x="840.5">功能1...</text></g></g><g id="minder_node30" opacity="1"><g id="node_expander29" style="cursor: pointer;"><path id="kity_path_316" fill="white" stroke="gray" d="M782.5,73.5A6,6,0,1,1,770.5,73.5A6,6,0,1,1,782.5,73.5"></path><path id="kity_path_317" fill="none" stroke="gray" d="M772,73.5L781,73.5"></path></g><path id="node_outline30" fill="none" stroke="none" d="M787.5,62.5h49a5,5,0,0,1,5,5v12a5,5,0,0,1,-5,5h-49a5,5,0,0,1,-5,-5v-12a5,5,0,0,1,5,-5z" stroke-width="3"></path><g id="node_text30" fill="black"><text id="kity_text_313" text-rendering="inherit" font-size="12" dy=".8em" y="65.70000004768372" x="792.5">首页.....</text></g></g><g id="minder_node33" opacity="1"><g id="node_expander32" style="cursor: pointer;"><path id="kity_path_458" fill="white" stroke="gray" d="M903.5502529144287,346.5502529144287A6,6,0,1,1,891.5502529144287,346.5502529144287A6,6,0,1,1,903.5502529144287,346.5502529144287"></path><path id="kity_path_459" fill="none" stroke="gray" d="M893.0502529144287,346.5502529144287L902.0502529144287,346.5502529144287"></path></g><path id="node_outline33" fill="rgb(238, 243, 246)" stroke="rgb(115, 161, 191)" d="M905.5,351.5h92a3,3,0,0,1,3,3v20a3,3,0,0,1,-3,3h-92a3,3,0,0,1,-3,-3v-20a3,3,0,0,1,3,-3z" stroke-width="1"></path><g id="node_text33" fill="black"><text id="kity_text_455" text-rendering="inherit" font-size="14" dy=".8em" y="355.40000009536743" x="922.5">项目开发</text></g></g><g id="minder_node21" opacity="1"><g id="node_expander20" style="cursor: pointer;" display="none"><path id="kity_path_190" fill="white" stroke="gray" d="M688.5,464.5A6,6,0,1,1,676.5,464.5A6,6,0,1,1,688.5,464.5"></path><path id="kity_path_191" fill="none" stroke="gray"></path></g><path id="node_outline21" fill="none" stroke="none" d="M693.5,453.5h59a5,5,0,0,1,5,5v12a5,5,0,0,1,-5,5h-59a5,5,0,0,1,-5,-5v-12a5,5,0,0,1,5,-5z" stroke-width="3"></path><g id="node_text21" fill="black"><text id="kity_text_187" text-rendering="inherit" font-size="12" dy=".8em" y="456.7000000476837" x="698.5">前端逻辑</text></g></g><g id="minder_node22" opacity="1"><g id="node_expander21" style="cursor: pointer;" display="none"><path id="kity_path_198" fill="white" stroke="gray" d="M687.5,502.5A6,6,0,1,1,675.5,502.5A6,6,0,1,1,687.5,502.5"></path><path id="kity_path_199" fill="none" stroke="gray"></path></g><path id="node_outline22" fill="none" stroke="none" d="M692.5,491.5h60a5,5,0,0,1,5,5v12a5,5,0,0,1,-5,5h-60a5,5,0,0,1,-5,-5v-12a5,5,0,0,1,5,-5z" stroke-width="3"></path><g id="node_text22" fill="black"><text id="kity_text_195" text-rendering="inherit" font-size="12" dy=".8em" y="494.7000000476837" x="697.5">后端逻辑</text></g></g><g id="minder_node23" opacity="1"><g id="node_expander22" style="cursor: pointer;" display="none"><path id="kity_path_206" fill="white" stroke="gray" d="M687.5,550.5A6,6,0,1,1,675.5,550.5A6,6,0,1,1,687.5,550.5"></path><path id="kity_path_207" fill="none" stroke="gray"></path></g><path id="node_outline23" fill="none" stroke="none" d="M692.5,539.5h60a5,5,0,0,1,5,5v12a5,5,0,0,1,-5,5h-60a5,5,0,0,1,-5,-5v-12a5,5,0,0,1,5,-5z" stroke-width="3"></path><g id="node_text23" fill="black"><text id="kity_text_203" text-rendering="inherit" font-size="12" dy=".8em" y="542.7000000476837" x="697.5">交互提示</text></g></g><g id="minder_node18" opacity="1"><g id="node_expander17" style="cursor: pointer;" display="none"><path id="kity_path_165" fill="white" stroke="gray" d="M929.5,153.5A6,6,0,1,1,917.5,153.5A6,6,0,1,1,929.5,153.5"></path><path id="kity_path_166" fill="none" stroke="gray"></path></g><path id="node_outline18" fill="none" stroke="none" d="M934.5,142.5h135a5,5,0,0,1,5,5v12a5,5,0,0,1,-5,5h-135a5,5,0,0,1,-5,-5v-12a5,5,0,0,1,5,-5z" stroke-width="3"></path><g id="node_text18" fill="black"><text id="kity_text_162" text-rendering="inherit" font-size="12" dy=".8em" y="145.70000004768372" x="939.5">根据框架需求 画原型图</text></g></g><g id="minder_node19" opacity="1"><g id="node_expander18" style="cursor: pointer;" display="none"><path id="kity_path_174" fill="white" stroke="gray" d="M951.5,193.5A6,6,0,1,1,939.5,193.5A6,6,0,1,1,951.5,193.5"></path><path id="kity_path_175" fill="none" stroke="gray"></path></g><path id="node_outline19" fill="none" stroke="none" d="M956.5,182.5h47a5,5,0,0,1,5,5v12a5,5,0,0,1,-5,5h-47a5,5,0,0,1,-5,-5v-12a5,5,0,0,1,5,-5z" stroke-width="3"></path><g id="node_text19" fill="black"><text id="kity_text_171" text-rendering="inherit" font-size="12" dy=".8em" y="185.70000004768372" x="961.5">效果图</text></g></g><g id="minder_node34" opacity="1"><g id="node_expander33" style="cursor: pointer;"><path id="kity_path_473" fill="white" stroke="gray" d="M999.5,512.5A6,6,0,1,1,987.5,512.5A6,6,0,1,1,999.5,512.5"></path><path id="kity_path_474" fill="none" stroke="gray" d="M989,512.5L998,512.5"></path></g><path id="node_outline34" fill="none" stroke="none" d="M1004.5,501.5h35a5,5,0,0,1,5,5v12a5,5,0,0,1,-5,5h-35a5,5,0,0,1,-5,-5v-12a5,5,0,0,1,5,-5z" stroke-width="3"></path><g id="node_text34" fill="black"><text id="kity_text_470" text-rendering="inherit" font-size="12" dy=".8em" y="504.7000000476837" x="1009.5">前端</text></g></g><g id="minder_node35" opacity="1"><g id="node_expander34" style="cursor: pointer;"><path id="kity_path_481" fill="white" stroke="gray" d="M963.5,660.5A6,6,0,1,1,951.5,660.5A6,6,0,1,1,963.5,660.5"></path><path id="kity_path_482" fill="none" stroke="gray" d="M953,660.5L962,660.5"></path></g><path id="node_outline35" fill="none" stroke="none" d="M968.5,649.5h36a5,5,0,0,1,5,5v12a5,5,0,0,1,-5,5h-36a5,5,0,0,1,-5,-5v-12a5,5,0,0,1,5,-5z" stroke-width="3"></path><g id="node_text35" fill="black"><text id="kity_text_478" text-rendering="inherit" font-size="12" dy=".8em" y="652.7000000476837" x="973.5">后端</text></g></g><g id="minder_node39" opacity="1"><g id="node_expander38" style="cursor: pointer;" display="none"><path id="kity_path_515" fill="white" stroke="gray" d="M1015.5,574.5A6,6,0,1,1,1003.5,574.5A6,6,0,1,1,1015.5,574.5"></path><path id="kity_path_516" fill="none" stroke="gray"></path></g><path id="node_outline39" fill="none" stroke="none" d="M1020.5,563.5h47a5,5,0,0,1,5,5v12a5,5,0,0,1,-5,5h-47a5,5,0,0,1,-5,-5v-12a5,5,0,0,1,5,-5z" stroke-width="3"></path><g id="node_text39" fill="black"><text id="kity_text_512" text-rendering="inherit" font-size="12" dy=".8em" y="566.7000000476837" x="1025.5">数据库</text></g></g><g id="minder_node40" opacity="1"><g id="node_expander39" style="cursor: pointer;" display="none"><path id="kity_path_523" fill="white" stroke="gray" d="M1020.5,621.5A6,6,0,1,1,1008.5,621.5A6,6,0,1,1,1020.5,621.5"></path><path id="kity_path_524" fill="none" stroke="gray"></path></g><path id="node_outline40" fill="none" stroke="none" d="M1025.5,610.5h35a5,5,0,0,1,5,5v12a5,5,0,0,1,-5,5h-35a5,5,0,0,1,-5,-5v-12a5,5,0,0,1,5,-5z" stroke-width="3"></path><g id="node_text40" fill="black"><text id="kity_text_520" text-rendering="inherit" font-size="12" dy=".8em" y="613.7000000476837" x="1030.5">接口</text></g></g><g id="kity_g_12" display="none"><path id="kity_path_13" fill="none" stroke="rgb(66, 94, 112)" d="M1025.5,610.5h35a5,5,0,0,1,5,5v12a5,5,0,0,1,-5,5h-35a5,5,0,0,1,-5,-5v-12a5,5,0,0,1,5,-5z" stroke-width="5"></path></g><g id="minder_node37" opacity="1"><g id="node_expander36" style="cursor: pointer;" display="none"><path id="kity_path_497" fill="white" stroke="gray" d="M1039.5,408.5A6,6,0,1,1,1027.5,408.5A6,6,0,1,1,1039.5,408.5"></path><path id="kity_path_498" fill="none" stroke="gray"></path></g><path id="node_outline37" fill="none" stroke="none" d="M1044.5,397.5h60a5,5,0,0,1,5,5v12a5,5,0,0,1,-5,5h-60a5,5,0,0,1,-5,-5v-12a5,5,0,0,1,5,-5z" stroke-width="3"></path><g id="node_text37" fill="black"><text id="kity_text_494" text-rendering="inherit" font-size="12" dy=".8em" y="400.7000000476837" x="1049.5">静态制作</text></g></g><g id="minder_node38" opacity="1"><g id="node_expander37" style="cursor: pointer;" display="none"><path id="kity_path_505" fill="white" stroke="gray" d="M1039.5,456.5A6,6,0,1,1,1027.5,456.5A6,6,0,1,1,1039.5,456.5"></path><path id="kity_path_506" fill="none" stroke="gray"></path></g><path id="node_outline38" fill="none" stroke="none" d="M1044.5,445.5h102a5,5,0,0,1,5,5v12a5,5,0,0,1,-5,5h-102a5,5,0,0,1,-5,-5v-12a5,5,0,0,1,5,-5z" stroke-width="3"></path><g id="node_text38" fill="black"><text id="kity_text_502" text-rendering="inherit" font-size="12" dy=".8em" y="448.7000000476837" x="1049.5">接口需求&#xa0; 对接口</text></g></g><g id="minder_node41" opacity="1"><g id="node_expander40" style="cursor: pointer;" display="none"><path id="kity_path_543" fill="white" stroke="gray" d="M1034.5502529144287,272.4497470855713A6,6,0,1,1,1022.5502529144287,272.4497470855713A6,6,0,1,1,1034.5502529144287,272.4497470855713"></path><path id="kity_path_544" fill="none" stroke="gray" d="M1024.0502529144287,272.4497470855713L1033.0502529144287,272.4497470855713"></path></g><path id="node_outline41" fill="rgb(238, 243, 246)" stroke="rgb(115, 161, 191)" d="M1036.5,241.5h64a3,3,0,0,1,3,3v20a3,3,0,0,1,-3,3h-64a3,3,0,0,1,-3,-3v-20a3,3,0,0,1,3,-3z" stroke-width="1"></path><g id="node_text41" fill="black"><text id="kity_text_540" text-rendering="inherit" font-size="14" dy=".8em" y="245.40000009536743" x="1053.5">测试</text></g></g><g id="minder_node43" opacity="1"><g id="node_expander42" style="cursor: pointer;"><path id="kity_path_559" fill="white" stroke="gray" d="M1178.5502529144287,295.5502529144287A6,6,0,1,1,1166.5502529144287,295.5502529144287A6,6,0,1,1,1178.5502529144287,295.5502529144287"></path><path id="kity_path_560" fill="none" stroke="gray" d="M1168.0502529144287,295.5502529144287L1177.0502529144287,295.5502529144287"></path></g><path id="node_outline43" fill="rgb(238, 243, 246)" stroke="rgb(115, 161, 191)" d="M1180.5,300.5h63a3,3,0,0,1,3,3v20a3,3,0,0,1,-3,3h-63a3,3,0,0,1,-3,-3v-20a3,3,0,0,1,3,-3z" stroke-width="1"></path><g id="node_text43" fill="black"><text id="kity_text_556" text-rendering="inherit" font-size="14" dy=".8em" y="304.40000009536743" x="1197.5">上线</text></g></g><g id="minder_node44" opacity="1"><g id="node_expander43" style="cursor: pointer;" display="none"><path id="kity_path_567" fill="white" stroke="gray" d="M1261.5,374.5A6,6,0,1,1,1249.5,374.5A6,6,0,1,1,1261.5,374.5"></path><path id="kity_path_568" fill="none" stroke="gray"></path></g><path id="node_outline44" fill="none" stroke="none" d="M1266.5,363.5h61a5,5,0,0,1,5,5v12a5,5,0,0,1,-5,5h-61a5,5,0,0,1,-5,-5v-12a5,5,0,0,1,5,-5z" stroke-width="3"></path><g id="node_text44" fill="black"><text id="kity_text_564" text-rendering="inherit" font-size="12" dy=".8em" y="366.7000000476837" x="1271.5">收集数据i</text></g></g><g id="minder_node45" opacity="1"><g id="node_expander44" style="cursor: pointer;" display="none"><path id="kity_path_575" fill="white" stroke="gray" d="M1275.5,417.5A6,6,0,1,1,1263.5,417.5A6,6,0,1,1,1275.5,417.5"></path><path id="kity_path_576" fill="none" stroke="gray"></path></g><path id="node_outline45" fill="none" stroke="none" d="M1280.5,406.5h60a5,5,0,0,1,5,5v12a5,5,0,0,1,-5,5h-60a5,5,0,0,1,-5,-5v-12a5,5,0,0,1,5,-5z" stroke-width="3"></path><g id="node_text45" fill="black"><text id="kity_text_572" text-rendering="inherit" font-size="12" dy=".8em" y="409.7000000476837" x="1285.5">维护系统</text></g></g><g id="minder_node46" opacity="1"><g id="node_expander45" style="cursor: pointer;" display="none"><path id="kity_path_583" fill="white" stroke="gray" d="M1291.5,463.5A6,6,0,1,1,1279.5,463.5A6,6,0,1,1,1291.5,463.5"></path><path id="kity_path_584" fill="none" stroke="gray"></path></g><path id="node_outline46" fill="none" stroke="none" d="M1296.5,452.5h58a5,5,0,0,1,5,5v12a5,5,0,0,1,-5,5h-58a5,5,0,0,1,-5,-5v-12a5,5,0,0,1,5,-5z" stroke-width="3"></path><g id="node_text46" fill="black"><text id="kity_text_580" text-rendering="inherit" font-size="12" dy=".8em" y="455.7000000476837" x="1301.5">修改bug</text></g></g><g id="minder_node47" opacity="1"><g id="node_expander46" style="cursor: pointer;" display="none"><path id="kity_path_591" fill="white" stroke="gray" d="M1304.5,508.5A6,6,0,1,1,1292.5,508.5A6,6,0,1,1,1304.5,508.5"></path><path id="kity_path_592" fill="none" stroke="gray"></path></g><path id="node_outline47" fill="none" stroke="none" d="M1309.5,497.5h59a5,5,0,0,1,5,5v12a5,5,0,0,1,-5,5h-59a5,5,0,0,1,-5,-5v-12a5,5,0,0,1,5,-5z" stroke-width="3"></path><g id="node_text47" fill="black"><text id="kity_text_588" text-rendering="inherit" font-size="12" dy=".8em" y="500.7000000476837" x="1314.5">系统升级</text></g></g></g></g></svg>